<?xml version="1.0" encoding="iso-8859-1"?>
<!-- Generator: Adobe Illustrator 21.0.0, SVG Export Plug-In . SVG Version: 6.00 Build 0)  -->
<svg xmlns="http://www.w3.org/2000/svg" xmlns:xlink="http://www.w3.org/1999/xlink" version="1.1" id="Capa_1" x="0px" y="0px" viewBox="0 0 512.002 512.002" style="enable-background:new 0 0 512.002 512.002;" xml:space="preserve" width="512" height="512">
<g>
	<g>
		<path d="M440.002,40h-30.003V30c0-16.542-13.458-30-30-30s-30,13.458-30,30v10H242.004c-5.522,0-10,4.477-10,10s4.478,10,10,10    h107.995v10c0,16.542,13.458,30,30,30s30-13.458,30-30V60h30.003c3.252,0,5.999,2.748,5.999,6v54.001h-380V66c0-3.252,2.748-6,6-6    h30.002v10c0,16.542,13.458,30,30,30s30-13.458,30-30V60h0.001c5.522,0,10-4.477,10-10s-4.478-10-10-10h-0.001V30    c0-16.542-13.458-30-30-30s-30,13.458-30,30v10H72.001c-14.337,0-26,11.664-26,26v420.002c0,14.336,11.663,26,26,26h368.001    c14.336,0,25.999-11.664,25.999-26V66C466.001,51.664,454.338,40,440.002,40z M389.999,70c0,5.514-4.486,10-10,10s-10-4.486-10-10    V30c0-5.514,4.486-10,10-10s10,4.486,10,10V70z M122.003,30c0-5.514,4.486-10,10-10s10,4.486,10,10v40c0,5.514-4.486,10-10,10    s-10-4.486-10-10V30z M440.002,492.002H72.001c-3.252,0-6-2.748-6-6v-346h380v346    C446.001,489.254,443.254,492.002,440.002,492.002z"/>
		<path d="M96.003,180.003h52c5.522,0,10-4.477,10-10s-4.478-10-10-10h-52c-5.522,0-10,4.477-10,10S90.48,180.003,96.003,180.003z"/>
		<path d="M122.003,200.004h-26c-5.522,0-10,4.477-10,10s4.478,10,10,10h26c5.522,0,10-4.477,10-10S127.525,200.004,122.003,200.004    z"/>
		<path d="M336.008,452h-0.007c-5.522,0-9.997,4.477-9.997,10s4.481,10,10.004,10s10-4.477,10-10S341.53,452,336.008,452z"/>
		<path d="M416,452h-39.996c-5.522,0-10,4.477-10,10s4.478,10,10,10H416c5.522,0,10-4.477,10-10S421.522,452,416,452z"/>
		<path d="M202.008,60c5.522,0,10-4.477,10-10s-4.478-10-10-10H202c-5.522,0-9.996,4.477-9.996,10S196.485,60,202.008,60z"/>
		<path d="M356.001,372.002h-10v-90.001c0-49.626-40.374-90-90-90s-90,40.374-90,90v90.001h-10c-5.522,0-10,4.477-10,10v40    c0,5.523,4.478,10,10,10h200c5.522,0,10-4.477,10-10v-40C366.001,376.479,361.523,372.002,356.001,372.002z M186.001,282.001    c0-38.598,31.402-70,70-70s70,31.402,70,70v90.001h-140V282.001z M346.001,412.002h-180v-20h180V412.002z"/>
		<path d="M286.001,272.002h-20v-20c0-5.523-4.478-10-10-10s-10,4.477-10,10v20h-20c-5.522,0-10,4.477-10,10s4.478,10,10,10h20v40    c0,5.523,4.478,10,10,10s10-4.477,10-10v-40h20c5.522,0,10-4.477,10-10S291.523,272.002,286.001,272.002z"/>
	</g>
</g>















</svg>
